<?xml version="1.0" standalone="no"?>
<!DOCTYPE svg PUBLIC "-//W3C//DTD SVG 20010904//EN"
 "http://www.w3.org/TR/2001/REC-SVG-20010904/DTD/svg10.dtd">
<svg version="1.0" xmlns="http://www.w3.org/2000/svg"
 width="350.000000pt" height="350.000000pt" viewBox="0 0 350.000000 350.000000"
 preserveAspectRatio="xMidYMid meet">
<metadata>
Created by potrace 1.14, written by Peter Selinger 2001-2017
</metadata>
<g transform="translate(0.000000,350.000000) scale(0.100000,-0.100000)"
fill="#000000" stroke="none">
<path d="M1665 3291 c-165 -79 -504 -475 -856 -1001 -124 -184 -155 -232 -261
-405 -272 -443 -460 -844 -475 -1015 -9 -94 14 -120 147 -171 l45 -17 1 -164
c0 -161 1 -166 27 -211 83 -141 281 -131 348 17 15 33 19 66 19 168 l0 127 38
-4 c20 -2 80 -6 132 -10 52 -4 112 -8 134 -10 233 -22 1037 -22 1371 -1 244
17 450 35 478 42 16 5 17 -6 17 -139 0 -131 2 -148 23 -188 44 -84 147 -127
233 -99 50 17 110 74 125 118 8 23 13 101 13 204 1 97 5 171 11 176 6 5 34 18
63 28 117 41 139 91 104 231 -33 131 -145 375 -277 603 -21 36 -46 81 -57 100
-11 19 -29 47 -39 62 -11 14 -19 29 -19 32 0 3 -50 83 -111 178 -479 744 -985
1339 -1160 1364 -22 3 -48 -2 -74 -15z"/>
</g>
</svg>
